<svg width="176" height="43" viewBox="0 0 176 43" fill="none" xmlns="http://www.w3.org/2000/svg">
<path d="M99.8046 42.2395C96.9889 42.2395 94.2658 41.8818 91.6353 41.1666C89.0418 40.4889 86.8744 39.4536 85.1331 38.0607L88.5787 31.7361C89.8384 32.7902 91.4315 33.6184 93.3581 34.2208C95.3217 34.8607 97.2482 35.1807 99.1377 35.1807C102.213 35.1807 104.436 34.4843 105.807 33.0914C107.214 31.6984 107.918 29.6279 107.918 26.8797V22.3056L108.474 14.6822L108.363 7.00227V0.451757L116.588 0.451757V25.7503C116.588 31.3972 115.143 35.5572 112.253 38.2301C109.363 40.903 105.214 42.2395 99.8046 42.2395ZM98.4708 29.3643C95.6922 29.3643 93.1728 28.762 90.9128 27.5573C88.6899 26.315 86.893 24.602 85.5221 22.4185C84.1884 20.1974 83.5215 17.6186 83.5215 14.6822C83.5215 11.7081 84.1884 9.12929 85.5221 6.9458C86.893 4.72466 88.6899 3.01172 90.9128 1.80704C93.1728 0.602351 95.6922 0 98.4708 0C100.99 0 103.213 0.527057 105.14 1.58116C107.066 2.59761 108.567 4.1976 109.641 6.3811C110.716 8.52694 111.253 11.294 111.253 14.6822C111.253 18.0327 110.716 20.7998 109.641 22.9832C108.567 25.1291 107.066 26.7291 105.14 27.7832C103.213 28.8373 100.99 29.3643 98.4708 29.3643ZM100.194 22.1362C101.713 22.1362 103.065 21.835 104.251 21.2327C105.436 20.5927 106.362 19.708 107.029 18.5786C107.696 17.4492 108.03 16.1504 108.03 14.6822C108.03 13.1763 107.696 11.8775 107.029 10.7857C106.362 9.65636 105.436 8.79048 104.251 8.18813C103.065 7.54814 101.713 7.22815 100.194 7.22815C98.6746 7.22815 97.3223 7.54814 96.1367 8.18813C94.9512 8.79048 94.0064 9.65636 93.3025 10.7857C92.6356 11.8775 92.3021 13.1763 92.3021 14.6822C92.3021 16.1504 92.6356 17.4492 93.3025 18.5786C94.0064 19.708 94.9512 20.5927 96.1367 21.2327C97.3223 21.835 98.6746 22.1362 100.194 22.1362Z" fill="white"/>
<path d="M137.257 31.2842C133.848 31.2842 130.848 30.6066 128.254 29.2513C125.698 27.896 123.716 26.0513 122.308 23.7173C120.9 21.3455 120.196 18.6538 120.196 15.6421C120.196 12.5927 120.881 9.90101 122.252 7.56693C123.66 5.19521 125.568 3.35053 127.976 2.03291C130.384 0.677635 133.108 0 136.146 0C139.072 0 141.703 0.639989 144.037 1.91997C146.408 3.1623 148.279 4.96933 149.65 7.34105C151.021 9.67513 151.706 12.4798 151.706 15.755C151.706 16.0939 151.688 16.4891 151.651 16.9409C151.614 17.355 151.577 17.7503 151.54 18.1268L127.254 18.1268V12.988L146.982 12.988L143.648 14.5127C143.648 12.9315 143.333 11.5575 142.703 10.3904C142.073 9.22338 141.203 8.31986 140.091 7.67987C138.98 7.00224 137.683 6.66342 136.201 6.66342C134.719 6.66342 133.404 7.00224 132.255 7.67987C131.144 8.31986 130.273 9.2422 129.643 10.4469C129.014 11.6139 128.699 13.0068 128.699 14.6256V15.9809C128.699 17.6374 129.051 19.1056 129.755 20.3856C130.496 21.6279 131.514 22.5879 132.811 23.2655C134.145 23.9055 135.701 24.2255 137.479 24.2255C139.072 24.2255 140.462 23.9808 141.647 23.4914C142.87 23.002 143.981 22.2679 144.982 21.2891L149.594 26.3713C148.224 27.9525 146.501 29.176 144.426 30.0419C142.351 30.8701 139.962 31.2842 137.257 31.2842Z" fill="white"/>
<path d="M157.438 30.8324V0.451755L165.719 0.451755V9.03515L164.552 6.55048C165.441 4.40464 166.867 2.78584 168.831 1.69409C170.794 0.564697 173.184 0 176 0V8.13163C175.629 8.09398 175.296 8.07516 175 8.07516C174.703 8.03751 174.388 8.01869 174.055 8.01869C171.684 8.01869 169.757 8.71515 168.275 10.1081C166.83 11.4633 166.108 13.5904 166.108 16.4891V30.8324L157.438 30.8324Z" fill="white"/>
<path d="M10.7813 30.8323L0 0.45166L8.16936 0.45166L17.1168 26.5971L13.2266 26.5971L22.563 0.45166L29.8987 0.45166L38.9573 26.5971H35.0671L44.2924 0.45166L51.9616 0.45166L51.6221 1.40344L41.1247 30.8323H32.733L24.7859 8.41389H27.3423L19.1174 30.8323L10.7813 30.8323Z" fill="white"/>
<path fill-rule="evenodd" clip-rule="evenodd" d="M51.6221 1.40344L51.9616 0.45166L50.9196 0.45166L51.6221 1.40344Z" fill="white"/>
<path d="M60.7114 13.718L51.6221 1.40344L51.9616 0.45166L60.645 0.45166L65.8054 7.6932L60.7114 13.718Z" fill="white"/>
<path d="M62.0313 15.5078L66.9862 9.32419L73.4813 0.45166L82.7066 0.45166L71.5847 15.3087L83.1512 30.8323H73.3146L66.7671 21.5268L59.9769 30.8323H50.5293L62.0313 15.5078Z" fill="white"/>
</svg>
